<svg width="91" height="77" viewBox="0 0 91 77" fill="none" xmlns="http://www.w3.org/2000/svg">
<path d="M12.3333 76.8834L1.24998 70.55C5.04999 63.5834 8.21665 57.25 10.75 51.55C13.0722 46.0611 14.9722 41.2056 16.45 36.9834C12.4389 35.2945 9.37777 33.3945 7.26666 31.2834C4.94444 29.1722 3.3611 27.1667 2.51665 25.2667C1.4611 23.5778 1.03888 22.2056 1.24998 21.15L2.19999 14.1834C2.19999 13.7611 3.14999 12.8111 5.04999 11.3334C6.94999 9.85557 9.16666 8.27224 11.7 6.58335C14.0222 4.89446 16.2389 3.41668 18.35 2.15001C20.25 0.88335 21.4111 0.250018 21.8333 0.250018C22.6778 0.250018 24.1555 0.988907 26.2667 2.46668C28.1667 4.15557 30.1722 6.05557 32.2833 8.16668C34.3944 10.4889 36.1889 12.6 37.6667 14.5C39.1444 16.6111 39.8833 18.1945 39.8833 19.25C39.8833 23.05 38.9333 27.5889 37.0333 32.8667C35.1333 38.3556 32.8111 43.8445 30.0667 49.3333C27.1111 55.0333 24.05 60.3111 20.8833 65.1667C17.7167 70.2333 14.8667 74.1389 12.3333 76.8834ZM62.6833 76.8834L51.6 70.55C55.4 63.5834 58.5667 57.25 61.1 51.55C63.4222 46.0611 65.3222 41.2056 66.8 36.9834C62.7889 35.2945 59.7278 33.3945 57.6167 31.2834C55.2944 29.1722 53.7111 27.1667 52.8667 25.2667C51.8111 23.5778 51.3889 22.2056 51.6 21.15L52.55 14.1834C52.55 13.7611 53.5 12.8111 55.4 11.3334C57.3 9.85557 59.5167 8.27224 62.05 6.58335C64.3722 4.89446 66.5889 3.41668 68.7 2.15001C70.6 0.88335 71.7611 0.250018 72.1833 0.250018C73.0278 0.250018 74.5056 0.988907 76.6167 2.46668C78.5167 4.15557 80.5222 6.05557 82.6333 8.16668C84.7444 10.4889 86.5389 12.6 88.0167 14.5C89.4944 16.6111 90.2333 18.1945 90.2333 19.25C90.2333 23.05 89.2833 27.5889 87.3833 32.8667C85.4833 38.3556 83.1611 43.8445 80.4167 49.3333C77.4611 55.0333 74.4 60.3111 71.2333 65.1667C68.0667 70.2333 65.2167 74.1389 62.6833 76.8834Z" fill="#F8DEC8"/>
</svg>
