<svg width="91" height="77" viewBox="0 0 91 77" fill="none" xmlns="http://www.w3.org/2000/svg">
<path d="M78.6667 0.116649L89.75 6.44998C85.95 13.4166 82.7833 19.75 80.25 25.45C77.9278 30.9389 76.0278 35.7944 74.55 40.0166C78.5611 41.7055 81.6222 43.6055 83.7333 45.7166C86.0556 47.8278 87.6389 49.8333 88.4833 51.7333C89.5389 53.4222 89.9611 54.7944 89.75 55.85L88.8 62.8166C88.8 63.2389 87.85 64.1889 85.95 65.6666C84.05 67.1444 81.8333 68.7278 79.3 70.4167C76.9778 72.1055 74.7611 73.5833 72.65 74.85C70.75 76.1167 69.5889 76.75 69.1667 76.75C68.3222 76.75 66.8445 76.0111 64.7333 74.5333C62.8333 72.8444 60.8278 70.9444 58.7167 68.8333C56.6056 66.5111 54.8111 64.4 53.3333 62.5C51.8556 60.3889 51.1167 58.8055 51.1167 57.75C51.1167 53.95 52.0667 49.4111 53.9667 44.1333C55.8667 38.6444 58.1889 33.1555 60.9333 27.6667C63.8889 21.9667 66.95 16.6889 70.1167 11.8333C73.2833 6.76665 76.1333 2.8611 78.6667 0.116649ZM28.3167 0.116649L39.4 6.44998C35.6 13.4166 32.4333 19.75 29.9 25.45C27.5778 30.9389 25.6778 35.7944 24.2 40.0166C28.2111 41.7055 31.2722 43.6055 33.3833 45.7166C35.7056 47.8278 37.2889 49.8333 38.1333 51.7333C39.1889 53.4222 39.6111 54.7944 39.4 55.85L38.45 62.8166C38.45 63.2389 37.5 64.1889 35.6 65.6666C33.7 67.1444 31.4833 68.7278 28.95 70.4167C26.6278 72.1055 24.4111 73.5833 22.3 74.85C20.4 76.1167 19.2389 76.75 18.8167 76.75C17.9722 76.75 16.4944 76.0111 14.3833 74.5333C12.4833 72.8444 10.4778 70.9444 8.36667 68.8333C6.25556 66.5111 4.46111 64.4 2.98333 62.5C1.50556 60.3889 0.766668 58.8055 0.766668 57.75C0.766668 53.95 1.71667 49.4111 3.61667 44.1333C5.51667 38.6444 7.83889 33.1555 10.5833 27.6667C13.5389 21.9667 16.6 16.6889 19.7667 11.8333C22.9333 6.76665 25.7833 2.8611 28.3167 0.116649Z" fill="#F8DEC8"/>
</svg>
