<svg width="30" height="30" viewBox="0 0 30 30" fill="none" xmlns="http://www.w3.org/2000/svg">
<g clip-path="url(#clip0_857_2592)">
<path d="M0 30L2.12034 22.3004C0.809455 20.0404 0.121776 17.481 0.12894 14.8645C0.12894 6.66588 6.83381 0 15.0645 0C19.0616 0 22.8152 1.54705 25.6304 4.35599C28.4527 7.16493 30.0071 10.9007 30 14.8717C30 23.0703 23.2951 29.7362 15.0573 29.7362H15.0501C12.5501 29.7362 10.0931 29.1088 7.9083 27.9254L0 30ZM8.28796 25.2376L8.73925 25.5086C10.6447 26.635 12.8295 27.2267 15.0573 27.2338H15.0645C21.9054 27.2338 27.4785 21.6944 27.4785 14.8788C27.4785 11.5779 26.1891 8.47671 23.8467 6.13831C21.5043 3.79991 18.3811 2.51664 15.0645 2.51664C8.22349 2.50951 2.65043 8.04896 2.65043 14.8645C2.65043 17.1958 3.30229 19.4701 4.54871 21.4377L4.8424 21.9083L3.58882 26.4639L8.28796 25.2376Z" fill="black"/>
<path d="M0.522461 29.4796L2.57117 22.0438C1.30326 19.8694 0.637074 17.3955 0.637074 14.8717C0.644237 6.95825 7.11271 0.520508 15.064 0.520508C18.925 0.520508 22.5425 2.01766 25.2646 4.72678C27.9866 7.43591 29.4838 11.0433 29.4838 14.8789C29.4838 22.7924 23.0081 29.2301 15.064 29.2301H15.0568C12.6428 29.2301 10.2717 28.6241 8.16572 27.4834L0.522461 29.4796Z" fill="black"/>
<path fill-rule="evenodd" clip-rule="evenodd" d="M11.3324 8.64779C11.053 8.02754 10.7593 8.01328 10.4943 8.00615C10.2794 7.99902 10.0287 7.99902 9.77794 7.99902C9.52722 7.99902 9.12608 8.0917 8.78224 8.46243C8.4384 8.83315 7.47852 9.73144 7.47852 11.5637C7.47852 13.3888 8.81806 15.1568 9.0043 15.4063C9.19055 15.6559 11.5903 19.5271 15.3797 21.0171C18.5315 22.2576 19.1762 22.0081 19.8567 21.9439C20.5372 21.8797 22.063 21.0456 22.3782 20.1758C22.6862 19.3061 22.6862 18.5646 22.5931 18.4078C22.5 18.2509 22.2493 18.1582 21.8768 17.9729C21.5043 17.7875 19.6705 16.8892 19.3266 16.7609C18.9828 16.6397 18.7321 16.5755 18.4885 16.9463C18.2378 17.317 17.5215 18.1511 17.3066 18.4006C17.0917 18.6502 16.8696 18.6787 16.4971 18.4933C16.1246 18.308 14.9212 17.9159 13.4957 16.6468C12.3854 15.663 11.6332 14.4439 11.4183 14.0732C11.2034 13.7024 11.3968 13.5028 11.5831 13.3175C11.7479 13.1535 11.9556 12.8826 12.1418 12.6687C12.3281 12.4548 12.3926 12.298 12.5143 12.0485C12.6361 11.7989 12.5788 11.5851 12.4857 11.3997C12.3926 11.2215 11.6619 9.3821 11.3324 8.64779Z" fill="white"/>
</g>
<defs>
<clipPath id="clip0_857_2592">
<rect width="30" height="30" fill="white"/>
</clipPath>
</defs>
</svg>
