<svg width="20" height="18" viewBox="0 0 20 18" fill="none" xmlns="http://www.w3.org/2000/svg">
<path d="M1.25 0.5625C0.732233 0.5625 0.3125 0.982233 0.3125 1.5C0.3125 2.01777 0.732233 2.4375 1.25 2.4375H18.75C19.2678 2.4375 19.6875 2.01777 19.6875 1.5C19.6875 0.982233 19.2678 0.5625 18.75 0.5625H1.25Z" fill="white"/>
<path d="M1.25 8.0625C0.732233 8.0625 0.3125 8.48223 0.3125 9C0.3125 9.51777 0.732233 9.9375 1.25 9.9375H8.75C9.26777 9.9375 9.6875 9.51777 9.6875 9C9.6875 8.48223 9.26777 8.0625 8.75 8.0625H1.25Z" fill="white"/>
<path d="M1.25 15.5625C0.732233 15.5625 0.3125 15.9822 0.3125 16.5C0.3125 17.0178 0.732233 17.4375 1.25 17.4375H5C5.51777 17.4375 5.9375 17.0178 5.9375 16.5C5.9375 15.9822 5.51777 15.5625 5 15.5625H1.25Z" fill="white"/>
</svg>
