<svg width="175" height="139" viewBox="0 0 175 139" fill="none" xmlns="http://www.w3.org/2000/svg">
<path d="M78.1331 1.12922C70.6665 3.15646 60.6398 9.87836 60.2131 13.186C59.6798 16.707 62.4531 16.1735 68.2131 11.7989C80.6931 2.30288 97.9731 3.04976 110.773 13.7194C116.32 18.3074 118.773 14.8931 113.653 9.66496C105.866 1.7694 89.7598 -2.07169 78.1331 1.12922Z" fill="#762023"/>
<path d="M27.4665 7.21104L20.2132 11.799L10.9332 31.5379C5.91986 42.421 1.43986 52.1304 1.01319 53.0907C-0.693477 57.6786 17.0132 75.6037 29.0665 81.472C36.9599 85.3131 48.6932 85.5265 55.5199 81.8988L59.9999 79.5515L66.9332 85.4198C73.8665 91.2881 85.0665 97.6899 88.3732 97.6899C91.1465 97.6899 101.387 91.7149 109.173 85.3131L116.213 79.6582L120.907 82.0055C124.427 83.7127 127.52 84.3528 133.173 84.3528C144.373 84.3528 153.867 79.3381 165.387 67.388C170.187 62.3733 174.347 57.1452 174.667 55.7581C175.2 53.8376 173.707 49.5697 169.547 40.5005C163.573 27.5901 161.333 24.7093 159.093 26.95C158.24 27.8035 159.307 31.1111 163.253 39.3268C170.613 54.7978 170.507 54.0509 166.347 58.959C156.96 70.2689 145.12 78.0577 135.84 79.2314C130.827 79.7649 119.733 77.2042 119.733 75.497C119.733 75.0702 120.48 72.2961 121.44 69.4153C122.4 66.1077 122.827 62.3733 122.4 59.7059C121.867 55.7581 122.08 55.2246 124.107 54.6911C128.16 53.6242 132.64 55.2246 136.16 58.8523C138.08 60.8795 140.107 62.48 140.64 62.48C141.173 62.3733 142.56 60.8795 143.733 59.0657C144.907 57.1452 148.107 54.4777 150.987 53.0907C153.76 51.5969 156 49.6764 156 48.7161C156 45.7286 148.213 20.3347 147.04 19.5879C146.4 19.1611 143.307 18.7343 140.32 18.7343H134.667V15.2133C134.667 12.5459 135.307 11.3722 137.653 9.98516C140.533 8.27801 140.747 8.3847 146.72 12.0124C150.453 14.253 153.013 16.7071 153.44 18.2008C154.187 21.0816 156.107 22.1486 158.133 20.8682C159.307 20.1214 159.2 19.2678 157.92 15.9602C156.64 12.6526 154.72 10.8387 148.96 7.31774C144.907 4.86372 140.96 2.72977 140.213 2.72977C139.467 2.72977 136.587 4.22353 134.027 6.03738L129.227 9.34498L129.547 16.387L129.867 23.5357L136.907 23.8557L143.84 24.1758L147.253 35.5924C149.067 41.8875 150.133 47.1157 149.6 47.329C149.067 47.5424 146.613 49.1429 144.16 50.9567L139.68 54.1576L135.84 52.0237C130.507 49.1429 127.093 48.5027 123.147 49.5697C120.16 50.5299 119.52 50.2099 117.6 47.5424C113.013 41.0339 103.947 39.5402 93.5999 43.3813L87.6265 45.6219L82.3999 43.3813C76.4265 40.8205 68.6399 40.5005 64.4799 42.6344C62.8799 43.488 60.2132 45.6219 58.5065 47.329C55.9465 50.1032 55.0932 50.4233 52.8532 49.5697C49.8665 48.396 43.0399 49.7831 39.1999 52.2371C36.7465 53.8376 36.3199 53.7309 31.3065 50.5299C25.3332 46.9023 25.4399 47.009 26.8265 42.6344C27.4665 40.9272 28.8532 36.0192 30.1332 31.7513L32.3732 24.0691H39.0932C44.3199 24.0691 46.0265 23.6423 46.5599 22.362C47.4132 20.0147 47.3065 10.9454 46.3465 9.55837C45.2799 7.95792 37.2799 2.72977 35.9999 2.72977C35.3599 2.72977 31.5199 4.75702 27.4665 7.21104ZM40.0532 11.0521C41.0132 11.9057 41.8665 14.0396 41.8665 15.6401C41.8665 18.5209 41.7599 18.6276 35.2532 18.9477L28.5332 19.2678L24.0532 34.0986C21.5999 42.2076 19.7865 49.3563 20.1065 49.8898C20.4265 50.4233 22.8799 51.8103 25.5465 53.0907C28.5332 54.4777 31.3065 56.8251 32.4799 58.959C35.0399 63.2269 36.7465 63.4403 39.1999 59.7059C41.3332 56.3983 47.6265 53.5175 51.0399 54.371C53.3865 55.0112 53.5999 55.6514 53.5999 61.5197C53.5999 65.0407 54.2399 69.522 55.0932 71.5492C56.9065 75.7104 56.3732 76.4573 49.9732 78.4845C39.5199 81.8988 27.5732 77.0975 14.9865 64.4005C10.3999 59.7059 6.66652 55.3313 6.66652 54.5844C6.66652 53.7309 10.6132 44.5549 15.5199 34.0986C24.3732 15.1066 24.3732 15.1066 30.1332 11.5856C35.8932 8.17131 36.5332 8.06462 40.0532 11.0521ZM82.5065 49.1429L87.7332 51.7036L93.2799 49.1429C101.28 45.4085 107.893 45.5152 112.053 49.463C117.067 54.1576 118.88 62.8001 116.107 69.2019C113.44 75.7104 97.3332 89.4743 89.7599 91.8216C85.0665 93.3154 64.4799 78.5912 60.4265 70.909C58.5065 67.1747 58.5065 59.1724 60.4265 54.5844C63.8399 46.3688 72.6932 44.1281 82.5065 49.1429Z" fill="#762023"/>
<path d="M80.1596 14.8927C74.9329 16.7066 69.5996 20.6544 69.5996 22.5749C69.5996 25.4557 72.5863 25.349 76.9596 22.3615C84.7463 17.2401 92.2129 17.6669 101.813 23.8553C104.266 25.349 105.013 25.349 106.08 24.2821C107.253 23.1084 106.72 22.1481 103.52 19.374C97.0129 13.7191 88.1596 12.0119 80.1596 14.8927Z" fill="#762023"/>
<path d="M81.9728 29.6167C80.0528 31.3238 79.5195 32.4975 80.1595 33.5644C80.9062 34.7381 81.7595 34.7381 84.9595 33.5644C88.0528 32.3908 89.3328 32.3908 90.9328 33.4577C94.0262 35.3783 96.2662 35.0582 96.2662 32.7109C96.2662 27.4827 86.6662 25.4555 81.9728 29.6167Z" fill="#762023"/>
<path d="M79.9465 105.479C78.0265 110.387 89.2265 113.588 94.2399 109.64C97.1199 107.292 96.3732 103.345 93.2799 104.625C89.9732 106.119 84.8532 106.439 84.1065 105.265C83.0399 103.665 80.5865 103.771 79.9465 105.479Z" fill="#762023"/>
<path d="M70.0267 115.295C69.0667 117.642 71.0933 119.563 77.3867 122.763C86.4533 127.245 97.6533 125.751 104.587 119.136C109.92 114.014 105.653 112.2 98.72 116.788C94.88 119.349 92.64 120.096 88.5867 120.096C83.5733 120.096 75.8933 117.215 74.4 114.761C73.44 113.161 70.6667 113.481 70.0267 115.295Z" fill="#762023"/>
<path d="M59.9995 125.324C59.9995 126.498 61.5995 128.738 63.5195 130.339C72.9062 138.235 87.3062 141.115 99.1462 137.381C107.04 134.927 116.533 128.312 116.533 125.324C116.533 122.337 113.76 122.87 108.32 127.031C96.4795 136.101 79.9462 136.101 67.9995 127.031C62.5595 122.87 59.9995 122.337 59.9995 125.324Z" fill="#762023"/>
</svg>
