<svg width="160" height="132" viewBox="0 0 160 132" fill="none" xmlns="http://www.w3.org/2000/svg">
<path d="M36.8532 1.88095C38.7732 6.38617 38.5599 12.8222 36.3199 16.4693C33.6532 20.76 33.4399 26.7669 35.6799 31.1649C38.7732 37.1718 41.2266 34.7047 38.7732 28.1614C37.0666 23.978 37.0666 23.6562 39.9466 17.6492C43.0399 11.2132 43.1466 4.99169 40.4799 1.66641C38.5599 -0.693462 35.7866 -0.478931 36.8532 1.88095Z" fill="#762023"/>
<path d="M55.84 2.4171C57.76 9.2822 57.76 10.7839 55.4133 15.2892C52.4266 20.867 52.2133 27.7321 54.7733 31.701C57.2266 35.5626 59.68 33.7391 57.76 29.5557C55.9466 25.4795 56.16 21.4034 58.6133 17.7563C62.24 12.1784 61.0666 0.0572243 56.8 0.0572243C55.6266 0.0572243 55.3066 0.700829 55.84 2.4171Z" fill="#762023"/>
<path d="M73.5465 1.5593C73.5465 2.41744 74.0798 3.49011 74.6132 3.81191C76.5332 4.99185 75.7865 13.2514 73.5465 16.684C70.9865 20.5456 70.7732 26.8743 73.1198 31.2723C74.3998 33.8467 75.0398 34.2758 76.2132 33.3104C77.3865 32.345 77.3865 31.5941 76.2132 28.5906C74.6132 24.729 75.1465 21.511 78.2398 15.6113C80.2665 11.7497 80.3732 6.92266 78.5598 3.27558C77.0665 0.272099 73.5465 -1.01511 73.5465 1.5593Z" fill="#762023"/>
<path d="M93.1734 2.4171C95.0934 9.2822 95.0934 10.7839 92.7468 15.2892C89.7601 20.867 89.5468 27.7321 92.1068 31.701C94.5601 35.5626 97.0134 33.7391 95.0934 29.5557C93.2801 25.4795 93.4934 21.4034 95.9468 17.7563C99.5734 12.1784 98.4001 0.0572243 94.1334 0.0572243C92.9601 0.0572243 92.6401 0.700829 93.1734 2.4171Z" fill="#762023"/>
<path d="M143.413 9.06791C140.427 10.3551 129.76 22.1545 118.347 36.7428L113.547 42.857L59.5734 42.9643C6.56007 42.9643 5.49341 42.9643 2.72007 45.2169C-0.586593 47.7913 -0.799926 50.5803 1.65341 61.5215C6.24007 81.9023 19.4667 100.138 37.6001 110.757L42.6134 113.761V121.055C42.6134 132.532 41.1201 131.996 75.3601 131.996C109.173 131.996 107.68 132.532 107.68 121.162V114.19L115.787 108.934C131.467 98.6359 143.093 82.5459 148.107 64.4177C152.053 50.2585 150.773 44.466 143.413 42.9643C140.853 42.428 141.387 41.8916 149.28 35.0265C154.08 31.0577 158.453 26.5524 158.987 25.0507C161.44 18.6147 158.773 11.535 153.013 9.06791C148.64 7.24437 147.573 7.24437 143.413 9.06791ZM152.48 12.9295C155.04 14.324 156.853 19.9019 155.787 23.0126C155.253 24.2998 150.133 29.3414 144.48 34.1684L134.24 42.9643H126.133C118.56 42.9643 118.133 42.857 119.627 41.0335C120.48 40.0681 124.64 34.9193 129.013 29.7705C141.173 14.8603 144.267 11.8569 147.573 11.8569C149.173 11.8569 151.413 12.2859 152.48 12.9295ZM146.4 48.864C146.827 49.7221 146.507 53.262 145.867 56.909L144.8 63.3451H75.6801C31.8401 63.3451 6.24007 62.916 5.81341 62.2724C4.74674 60.6634 3.89341 50.7948 4.53341 48.9713C5.17341 47.4695 12.7467 47.255 75.5734 47.255C136.373 47.255 145.973 47.4695 146.4 48.864ZM142.88 68.1721C142.88 69.1375 141.387 72.6773 139.68 76.2171L136.48 82.6531H75.0401H13.7067L10.6134 75.8953C8.80007 72.2482 7.41341 68.6012 7.41341 67.8503C7.41341 66.8849 21.7067 66.5631 75.1467 66.5631C135.2 66.5631 142.88 66.7776 142.88 68.1721ZM133.28 86.8366C133.28 89.0892 121.867 100.138 114.4 105.179L106.4 110.543H75.6801C40.9067 110.543 43.6801 111.079 30.6667 101.21C25.1201 97.0269 17.0134 88.231 17.0134 86.5148C17.0134 86.193 43.1467 85.8712 75.1467 85.8712C109.813 85.8712 133.28 86.3002 133.28 86.8366ZM104.48 120.626C104.48 124.166 103.947 126.847 102.987 127.598C102.027 128.456 93.6001 128.778 74.5067 128.563L47.4134 128.242L46.8801 123.415C45.8134 114.19 43.4667 114.833 75.7867 114.833H104.48V120.626Z" fill="#762023"/>
</svg>
