<svg width="153" height="137" viewBox="0 0 153 137" fill="none" xmlns="http://www.w3.org/2000/svg">
<path d="M42.8427 1.30886C39.6427 2.26886 35.2694 4.18886 33.2427 5.68219C19.8027 15.1755 14.4694 17.7355 4.22936 19.4422C1.24269 19.8689 0.176025 20.6155 0.176025 22.0022C0.176025 24.9889 2.84269 25.5222 10.416 23.7089C18.6294 21.7889 24.496 19.0155 31.7494 13.4689C40.2827 6.96219 44.1227 5.68219 55.6427 5.68219C66.5227 5.68219 70.1494 6.85552 71.536 10.6955C71.9627 11.9755 72.176 19.4422 71.856 27.2289C71.4294 40.3489 71.216 41.5222 69.0827 42.9089C63.6427 46.5355 59.9094 41.9489 59.9094 31.7089C59.9094 28.2955 59.5894 24.7755 59.2694 23.8155C57.776 19.8689 53.5094 23.3889 53.5094 28.7222C53.4027 32.9889 49.5627 40.1355 45.936 42.2689C44.016 43.4422 40.6027 44.7222 38.3627 45.0422C34.8427 45.6822 34.2027 46.1089 34.5227 48.0289C34.736 49.9489 35.4827 50.3755 38.3627 50.1622C44.1227 49.9489 46.896 48.8822 50.8427 45.4689L54.576 42.1622L57.6694 45.4689C59.376 47.2822 62.256 49.0955 63.9627 49.4155C67.056 50.0555 67.056 50.1622 65.6694 52.9355C63.856 56.2422 63.7494 59.8689 65.3494 62.7489C66.2027 64.5622 65.8827 65.5222 63.0027 68.7222C59.9094 72.2422 59.696 72.9889 60.336 77.8955L60.8694 83.2289L49.9894 82.5889C38.896 81.9489 33.136 80.4555 21.5094 75.0155C15.536 72.3489 4.01603 69.8955 1.45603 70.8555C0.709359 71.1755 0.176025 72.4555 0.389359 73.7355C0.709359 75.6555 1.66936 76.0822 6.57603 76.6155C9.77603 76.9355 16.816 79.0689 22.0427 81.3089C36.976 87.6022 40.816 88.2422 65.5627 88.2422C89.3494 88.2422 93.1894 87.6022 96.6027 82.8022C98.5227 80.0289 98.8427 74.1622 97.2427 71.2822C96.496 69.7889 96.816 68.7222 98.8427 66.9089C102.149 63.8155 103.323 58.0555 101.616 53.4689C100.443 50.2689 100.549 49.5222 102.683 46.7489C104.496 44.1889 104.923 42.5889 104.496 38.7489L103.856 33.8422H117.509C130.629 33.8422 131.376 33.7355 134.469 31.0689C140.549 26.0555 139.803 16.4555 133.083 12.4022C130.096 10.5889 127.323 10.3755 103.643 10.3755H77.4027L76.336 7.38885C75.5894 5.57552 73.5627 3.65553 71.1094 2.48219C65.456 -0.291145 50.6294 -0.824478 42.8427 1.30886ZM129.776 16.9889C131.269 17.6289 132.443 18.4822 132.443 18.8022C132.443 19.1222 132.763 20.5089 133.083 21.7889C133.509 23.2822 132.976 24.7755 131.483 26.2689C129.349 28.4022 128.176 28.5089 103.109 28.5089H76.976V25.4155C76.976 23.7089 77.296 20.8289 77.616 19.0155L78.3627 15.7089H102.683C118.896 15.7089 127.963 16.1355 129.776 16.9889ZM97.2427 35.9755C98.416 37.1489 99.376 39.0689 99.376 40.2422C99.376 41.4155 98.416 43.3355 97.2427 44.5089C95.4294 46.3222 93.7227 46.6422 85.4027 46.6422C75.8027 46.6422 75.696 46.6422 76.336 44.1889C76.7627 42.9089 77.4027 40.0289 77.7227 37.7889L78.3627 33.8422H86.6827C93.7227 33.8422 95.4294 34.1622 97.2427 35.9755ZM95.1094 54.1089C97.6694 56.6689 97.776 59.3355 95.7494 62.2155C94.3627 64.0289 92.8694 64.2422 83.376 64.2422C73.8827 64.2422 72.3894 64.0289 71.0027 62.2155C68.976 59.3355 69.0827 56.6689 71.6427 54.1089C73.456 52.2955 75.1627 51.9755 83.376 51.9755C91.5894 51.9755 93.296 52.2955 95.1094 54.1089ZM91.056 71.9222C93.4027 74.0555 93.5094 77.8955 91.2694 80.1355C89.9894 81.4155 87.216 81.8422 79.1094 81.8422C69.4027 81.8422 68.4427 81.6289 66.9494 79.4955C64.7094 76.2955 64.816 74.8022 67.376 72.2422C69.1894 70.4289 70.896 70.1089 79.3227 70.1089C86.896 70.1089 89.456 70.5355 91.056 71.9222Z" fill="#762023"/>
<path d="M125.189 45.2553C121.776 49.7353 118.576 55.4953 118.576 57.3087C118.576 60.1887 122.096 65.6287 124.549 66.802C133.509 70.8553 142.789 63.4953 139.909 54.642C138.416 50.162 131.803 41.3087 129.776 41.3087C129.029 41.3087 126.896 43.122 125.189 45.2553ZM134.896 56.3487C136.283 61.4687 128.709 64.7753 125.616 60.402C123.909 57.9487 124.229 56.1353 127.429 51.5487L129.563 48.4553L132.016 51.442C133.296 53.1487 134.683 55.282 134.896 56.3487Z" fill="#762023"/>
<path d="M124.763 81.5222C114.203 92.7222 106.843 105.949 106.843 113.736C106.843 126.002 117.616 136.242 130.523 136.242C136.176 136.242 145.243 131.122 148.869 125.896C152.389 120.776 153.669 112.882 151.749 107.122C149.189 99.3355 133.403 77.7889 130.309 77.6822C129.349 77.5755 126.896 79.3889 124.763 81.5222ZM135.856 91.6555C147.696 107.122 149.616 114.696 144.069 122.909C140.549 127.922 136.069 130.269 129.776 130.269C122.736 130.269 117.296 127.069 114.416 120.882C111.429 114.909 111.643 110.962 114.949 104.669C117.296 100.296 128.923 83.9755 129.776 83.9755C129.883 83.9755 132.656 87.4955 135.856 91.6555Z" fill="#762023"/>
<path d="M128.496 104.989C127.749 105.309 127.109 106.375 127.109 107.549C127.109 108.829 126.043 110.002 124.336 110.642C121.029 111.922 121.243 115.335 124.656 115.762C126.149 115.975 127.109 117.042 127.323 118.429C127.536 119.922 128.389 120.775 129.776 120.775C131.163 120.775 132.016 119.922 132.229 118.429C132.443 117.042 133.403 115.975 134.896 115.762C138.309 115.335 138.523 111.922 135.216 110.642C133.723 110.109 132.443 108.935 132.443 108.082C132.443 106.162 130.096 104.349 128.496 104.989Z" fill="#762023"/>
</svg>
