<svg width="176" height="140" viewBox="0 0 176 140" fill="none" xmlns="http://www.w3.org/2000/svg">
<path d="M24.0928 3.17311C21.3195 5.95853 20.8928 7.02985 21.1061 11.9579C21.2128 15.0647 20.9995 19.8856 20.4661 22.5639C19.9328 26.2064 20.2528 29.7417 21.9595 36.3839C23.1328 41.3119 24.0928 45.3829 23.8795 45.49C23.7728 45.5972 21.1061 47.097 18.0128 48.8111C11.1861 52.4536 4.14615 59.0957 2.22615 63.9166C0.199481 68.5233 0.306148 75.3797 2.43948 79.8792C4.57281 84.2716 11.5061 90.8066 18.4395 94.7705C21.3195 96.4846 23.7728 97.8773 23.9861 97.9844C24.0928 98.0916 23.2395 101.948 22.0661 106.555C20.8928 111.162 19.9328 116.518 19.9328 118.554C19.9328 120.589 18.9728 123.589 17.6928 125.303C14.7061 129.267 15.5595 134.945 19.7195 138.159C21.9595 139.98 23.4528 140.301 26.8661 139.766C29.2128 139.444 34.5462 139.123 38.8128 139.23C48.7328 139.444 57.4795 137.195 69.5328 131.302C76.3595 128.088 79.7728 126.91 81.2662 127.553C84.1461 128.624 92.6795 128.731 94.4928 127.553C95.4528 126.91 99.1861 128.196 105.693 131.302C117.319 136.766 125.959 139.23 134.066 139.23C140.466 139.23 147.293 136.659 150.386 133.016C156.253 126.481 156.786 112.554 151.666 99.4843C150.706 97.0203 156.466 94.6634 159.453 96.2703C163.293 98.3058 167.133 97.6631 170.439 94.2348C173.213 91.4494 173.639 90.3781 173.426 85.4501C173.426 82.3433 173.853 77.5223 174.599 74.8441C175.879 70.2374 175.773 69.3803 173.319 64.0238C170.546 57.9173 165.319 52.9892 156.359 47.7398L151.453 44.9544L153.373 37.7766C157.746 21.814 153.906 9.38673 143.346 5.42288C135.026 2.20894 118.173 5.20862 104.199 12.2793C99.6128 14.6362 97.5862 14.9576 87.6661 14.9576C77.7461 14.9576 75.7195 14.6362 71.1328 12.2793C62.9195 8.10117 50.4395 4.24443 45.1062 4.24443C42.1195 4.24443 38.9195 3.38737 36.7861 2.10181C31.7728 -1.005 27.8261 -0.683624 24.0928 3.17311ZM34.2262 7.02985C36.4661 9.2796 36.3595 10.9937 33.9062 13.2435C31.3461 15.6004 28.6795 15.1718 26.7595 12.2793C25.4795 10.3509 25.5861 9.70813 26.9728 7.67264C28.8928 4.88722 31.8795 4.67296 34.2262 7.02985ZM54.8128 11.3151C63.0261 13.5649 62.8128 14.9576 54.3862 14.9576C41.9062 14.9576 36.3595 20.5284 35.1861 34.2412C34.6528 40.8834 34.3328 41.6333 31.8795 42.2761C30.4928 42.5975 29.1061 42.7046 28.7861 42.4904C27.6128 41.2048 24.9461 24.8137 25.5861 22.2425C26.2261 19.6714 26.7595 19.4571 29.8528 19.9928C34.2262 20.6355 39.5595 16.5645 40.5195 11.8508C41.1595 8.85107 41.4795 8.63683 45.2128 9.17247C47.4528 9.49387 51.7195 10.4581 54.8128 11.3151ZM143.666 11.6365C149.853 15.9218 151.666 25.3493 148.359 36.491C147.399 39.7049 146.546 42.3832 146.333 42.5975C146.226 42.8118 144.839 42.5975 143.239 42.169C140.679 41.5262 140.466 41.0976 140.466 35.8482C140.466 21.7069 134.066 14.9576 120.519 14.9576C112.519 14.9576 112.626 13.9934 120.733 11.4222C130.759 8.2083 138.866 8.31543 143.666 11.6365ZM76.7861 21.5997L81.2662 24.0638L75.3995 24.5994C70.3861 25.0279 69.5328 25.4565 69.5328 27.2777C69.5328 29.2061 70.3861 29.4203 78.3861 29.7417C86.0661 29.956 87.2395 30.2774 86.9195 31.8843C86.5995 33.3842 84.6795 33.8127 74.2262 34.4555C67.3995 34.884 59.2928 35.6339 56.3061 36.1696L50.7595 37.1338L51.0795 33.8127C51.3995 30.7059 51.7195 30.4916 56.1995 29.956C60.1461 29.5275 60.9995 28.9918 60.9995 27.2777C60.9995 25.4565 60.1461 25.1351 55.9861 24.8137C49.2661 24.3851 45.5328 27.7062 45.5328 34.2412C45.5328 36.5981 45.1062 38.5265 44.5728 38.5265C44.0395 38.5265 42.7595 38.8479 41.6928 39.2764C40.0928 39.8121 39.9861 39.2764 40.4128 33.8127C41.3728 22.4568 45.9595 19.35 62.3861 19.35C70.7061 19.2428 73.0528 19.6714 76.7861 21.5997ZM125.533 20.3141C131.719 22.0283 134.386 25.6707 134.919 33.3842C135.346 39.2764 135.239 39.8121 133.533 39.2764C132.573 38.8479 131.293 38.5265 130.759 38.5265C130.226 38.5265 129.799 36.3839 129.799 33.7056C129.799 26.4206 127.559 24.9208 115.613 24.1709C110.173 23.9566 103.986 23.3138 101.746 22.8853C99.3995 22.4568 96.5195 22.7782 94.5995 23.5281C91.9328 24.5994 90.9728 24.5994 88.7328 23.0996C87.2395 22.1354 86.0661 20.8498 86.0661 20.3141C86.0661 19.0286 120.626 19.0286 125.533 20.3141ZM106.013 30.1702C111.346 35.2054 107.826 44.3116 100.573 44.3116C95.3461 44.3116 92.0395 40.9905 92.0395 35.7411C92.0395 28.5633 100.679 25.1351 106.013 30.1702ZM124.466 33.5984V37.1338L119.453 36.2767C113.799 35.2054 114.333 35.5268 113.373 32.3129C112.626 30.0631 112.839 29.956 118.493 29.956H124.466V33.5984ZM87.2395 40.8834C91.0795 48.4897 98.2262 51.4894 104.946 48.704L108.999 46.9899L116.786 55.1319C125.319 64.238 125.533 64.988 122.866 75.4868C119.133 89.6282 108.253 103.341 95.5595 109.662C89.2662 112.876 87.6661 113.304 85.2128 112.34C79.6661 110.197 72.7328 105.591 67.1861 100.341C61.8528 95.3062 58.3328 94.2348 58.3328 97.6631C58.3328 100.02 70.4928 110.733 77.2128 114.376C85.3195 118.661 89.5862 118.768 97.6928 114.697C110.813 107.948 122.333 94.2348 126.813 79.8792C129.693 70.6659 129.479 70.9873 131.613 73.0228C132.786 74.3084 133.106 75.8082 132.573 78.3794C131.613 83.6288 125.959 95.0919 121.159 101.413C118.919 104.519 116.999 107.519 116.999 108.055C116.999 110.305 119.453 110.519 122.119 108.483C123.719 107.305 129.693 105.055 135.559 103.341C147.399 100.02 147.079 99.9128 148.999 108.483C152.519 124.874 147.186 133.873 134.066 133.873C126.066 133.766 120.306 132.374 110.706 127.874L102.706 124.125L107.399 121.018C113.053 117.268 114.333 115.34 112.199 113.519C111.026 112.554 109.959 112.769 107.186 114.911C101.533 119.304 92.2528 123.16 87.6661 123.16C79.0261 123.16 62.4928 112.233 54.2795 101.198C44.7862 88.4497 41.4795 78.1651 40.5195 59.0957C39.9861 48.3826 40.1995 45.5972 41.3728 44.8473C45.1062 42.4904 45.5328 43.6688 45.5328 54.9176C45.5328 67.9876 46.9195 76.3439 50.3328 84.1645C52.6795 89.5211 55.1328 91.4494 56.6261 88.9854C56.9461 88.4497 55.9861 84.7001 54.3862 80.7363C51.8261 73.987 51.5061 72.0586 51.5061 57.8102L51.3995 42.3832L56.1995 41.419C58.8661 40.9905 66.0128 40.1335 72.1995 39.7049C78.3861 39.2764 83.9328 38.7408 84.6795 38.6336C85.4261 38.6336 86.5995 39.5978 87.2395 40.8834ZM123.719 42.4904C124.146 42.7046 124.466 45.7043 124.466 49.0254V55.0247L118.599 49.2396C111.133 41.8476 111.026 40.2406 117.853 41.3119C120.626 41.6333 123.186 42.169 123.719 42.4904ZM133.426 44.5259C134.813 45.0615 135.133 47.2041 135.133 56.3103C135.133 62.4168 134.813 67.452 134.493 67.452C134.173 67.452 132.999 66.3807 131.826 64.988C130.226 63.0596 129.906 60.8098 129.799 53.2035C129.799 43.9902 130.119 43.2403 133.426 44.5259ZM34.8661 51.0609L34.7595 55.1319L33.1595 52.1322C31.5595 49.2396 31.8795 47.097 33.9062 47.097C34.4395 47.097 34.8661 48.9182 34.8661 51.0609ZM143.666 48.3826C143.559 49.1325 142.919 50.9537 142.066 52.4536L140.573 55.1319L140.466 51.0609C140.466 48.2755 140.893 47.097 142.066 47.097C142.919 47.097 143.666 47.7398 143.666 48.3826ZM31.0261 58.8815C37.5328 70.0231 37.5328 72.9157 31.0261 84.3788L26.1195 93.0564L21.7461 90.9138C15.4528 87.5927 7.34615 79.5578 6.17281 75.3797C4.67948 70.0231 6.59948 64.7737 11.7195 59.7385C15.0261 56.5246 23.1328 51.168 26.0128 50.311C26.1195 50.311 28.3595 54.1677 31.0261 58.8815ZM154.439 52.6678C156.893 54.0606 161.266 57.3816 164.039 60.0599C169.586 65.5236 171.293 70.2374 169.373 75.2726C168.413 77.7366 167.773 78.058 165.533 77.5223C159.666 76.0225 153.266 81.5933 153.266 88.2355C153.266 89.8425 152.413 91.4494 151.239 92.0922C149.426 93.0564 148.679 92.0922 144.199 83.736C138.226 72.4872 138.226 70.5588 144.733 58.5601C147.186 54.0606 149.319 50.311 149.533 50.311C149.746 50.311 151.879 51.3823 154.439 52.6678ZM45.5328 99.27C45.5328 99.5914 37.6395 97.3417 34.6528 96.1632C32.9462 95.5204 31.6661 94.8776 31.6661 94.5562C31.6661 93.8063 36.1461 85.2358 37.3195 83.736C38.0662 82.7718 39.3461 84.593 41.9062 90.6995C43.9328 95.3062 45.5328 99.1629 45.5328 99.27ZM143.346 94.6634C142.919 95.8418 130.866 99.9128 130.013 99.1629C129.906 98.9486 131.506 95.0919 133.639 90.5924L137.586 82.3433L140.679 87.807C142.386 90.9138 143.559 93.9135 143.346 94.6634ZM166.919 83.736C167.666 84.4859 168.199 85.9857 168.199 87.2713C168.199 92.3065 161.586 94.0206 159.559 89.5211C157.213 84.4859 163.079 79.8792 166.919 83.736ZM40.9462 103.448C50.5462 106.019 51.8261 106.662 56.7328 111.59C59.6128 114.483 64.3061 118.339 67.1861 120.268C73.2661 124.232 73.1595 124.446 60.6795 129.695C54.9195 132.052 50.2262 133.231 44.2528 133.659L35.9328 134.195V130.552C35.9328 125.731 33.5862 122.518 28.8928 121.018L24.9461 119.732L25.5861 114.483C26.3328 108.162 28.5728 100.663 29.6395 100.663C30.0662 100.663 35.0795 101.948 40.9462 103.448ZM28.5728 126.374C32.5195 128.517 30.4928 134.945 25.7995 134.945C21.3195 134.945 19.5061 130.231 22.7061 127.017C24.6261 124.982 25.6928 124.874 28.5728 126.374Z" fill="#762023"/>
<path d="M79.2398 56.9531C78.2798 58.2386 77.5331 60.7027 77.5331 62.3096C77.5331 64.9879 77.1065 65.3093 74.0131 65.3093C68.8931 65.3093 66.8665 67.9876 66.8665 74.844C66.8665 82.3432 68.1465 84.4859 73.1598 85.2358C76.9998 85.8786 77.3198 86.2 77.9598 90.0567C78.7065 95.0919 80.8398 96.3774 88.0931 96.3774C94.4931 96.3774 97.7998 93.8063 97.7998 88.9854C97.7998 86.3071 98.2265 85.8786 101.64 85.3429C107.506 84.3787 108.466 82.986 108.466 75.4868C108.466 67.7733 106.653 65.3093 101.213 65.3093C98.0131 65.3093 97.7998 64.9879 97.7998 61.774C97.7998 56.4174 95.1331 54.5962 87.3465 54.5962C81.7998 54.5962 80.6265 54.9176 79.2398 56.9531ZM92.6798 64.9879L92.9998 70.1302L98.1198 70.4516L103.133 70.773V75.4868V80.2006L98.1198 80.522L92.9998 80.8434L92.6798 85.8786L92.3598 91.0209H87.6665H82.9731L82.6531 85.8786L82.3331 80.8434L77.3198 80.522L72.1998 80.2006V75.4868V70.773L77.3198 70.4516L82.3331 70.1302L82.6531 64.9879L82.9731 59.9527H87.6665H92.3598L92.6798 64.9879Z" fill="#762023"/>
</svg>
