<svg width="30" height="30" viewBox="0 0 30 30" fill="none" xmlns="http://www.w3.org/2000/svg">
<g clip-path="url(#clip0_857_2590)">
<path d="M15 2.70345C19.0076 2.70345 19.478 2.72132 21.0619 2.79277C22.5268 2.85828 23.3188 3.10242 23.8488 3.31084C24.5514 3.58476 25.0516 3.90631 25.5756 4.43033C26.0997 4.95435 26.4272 5.45455 26.6951 6.15721C26.8976 6.68718 27.1477 7.47916 27.2132 8.94403C27.2847 10.528 27.3025 10.9984 27.3025 15.006C27.3025 19.0135 27.2847 19.4839 27.2132 21.0679C27.1477 22.5328 26.9036 23.3247 26.6951 23.8547C26.4212 24.5574 26.0997 25.0576 25.5756 25.5816C25.0516 26.1056 24.5514 26.4331 23.8488 26.7011C23.3188 26.9035 22.5268 27.1536 21.0619 27.2191C19.478 27.2906 19.0076 27.3085 15 27.3085C10.9925 27.3085 10.522 27.2906 8.93808 27.2191C7.47321 27.1536 6.68123 26.9095 6.15125 26.7011C5.44859 26.4272 4.9484 26.1056 4.42438 25.5816C3.90036 25.0576 3.57285 24.5574 3.30489 23.8547C3.10242 23.3247 2.85232 22.5328 2.78682 21.0679C2.71536 19.4839 2.6975 19.0135 2.6975 15.006C2.6975 10.9984 2.71536 10.528 2.78682 8.94403C2.85232 7.47916 3.09647 6.68718 3.30489 6.15721C3.5788 5.45455 3.90036 4.95435 4.42438 4.43033C4.9484 3.90631 5.44859 3.5788 6.15125 3.31084C6.68123 3.10838 7.47321 2.85828 8.93808 2.79277C10.522 2.71536 10.9984 2.70345 15 2.70345ZM15 0C10.927 0 10.4149 0.0178642 8.81303 0.0893212C7.21715 0.160778 6.12744 0.416832 5.17468 0.786026C4.18619 1.16713 3.35252 1.68519 2.51886 2.51886C1.68519 3.35252 1.17309 4.19214 0.786027 5.17467C0.416832 6.12743 0.160778 7.21715 0.0893212 8.81898C0.0178642 10.4148 0 10.927 0 15C0 19.073 0.0178642 19.5852 0.0893212 21.187C0.160778 22.7829 0.416832 23.8726 0.786027 24.8313C1.16713 25.8198 1.68519 26.6534 2.51886 27.4871C3.35252 28.3208 4.19214 28.8329 5.17468 29.2199C6.12744 29.5891 7.21715 29.8452 8.81898 29.9166C10.4208 29.9881 10.927 30.006 15.006 30.006C19.085 30.006 19.5911 29.9881 21.1929 29.9166C22.7888 29.8452 23.8785 29.5891 24.8373 29.2199C25.8257 28.8388 26.6594 28.3208 27.4931 27.4871C28.3267 26.6534 28.8388 25.8138 29.2259 24.8313C29.5951 23.8785 29.8512 22.7888 29.9226 21.187C29.9941 19.5852 30.0119 19.079 30.0119 15C30.0119 10.921 29.9941 10.4148 29.9226 8.81302C29.8512 7.21715 29.5951 6.12743 29.2259 5.16872C28.8448 4.18023 28.3267 3.34657 27.4931 2.5129C26.6594 1.67924 25.8198 1.16713 24.8373 0.780071C23.8845 0.410877 22.7948 0.154823 21.1929 0.0833664C19.5852 0.0178642 19.0731 0 15 0Z" fill="black"/>
<path d="M15.0004 7.30029C10.7487 7.30029 7.29492 10.7481 7.29492 15.0057C7.29492 19.2634 10.7427 22.7112 15.0004 22.7112C19.258 22.7112 22.7058 19.2634 22.7058 15.0057C22.7058 10.7481 19.258 7.30029 15.0004 7.30029ZM15.0004 20.0018C12.2374 20.0018 9.99838 17.7628 9.99838 14.9998C9.99838 12.2368 12.2374 9.99779 15.0004 9.99779C17.7634 9.99779 20.0023 12.2368 20.0023 14.9998C20.0023 17.7628 17.7634 20.0018 15.0004 20.0018Z" fill="black"/>
<path d="M23.0093 8.78905C24.0025 8.78905 24.8076 7.98391 24.8076 6.99072C24.8076 5.99752 24.0025 5.19238 23.0093 5.19238C22.0161 5.19238 21.2109 5.99752 21.2109 6.99072C21.2109 7.98391 22.0161 8.78905 23.0093 8.78905Z" fill="black"/>
</g>
<defs>
<clipPath id="clip0_857_2590">
<rect width="30" height="30" fill="white"/>
</clipPath>
</defs>
</svg>
