<svg width="29" height="28" viewBox="0 0 29 28" fill="none" xmlns="http://www.w3.org/2000/svg">
<g id="logos:whatsapp-icon" clip-path="url(#clip0_146_1133)">
<path id="Vector" d="M1.20163 13.8327C1.20098 16.1852 1.81567 18.4823 2.98451 20.507L1.08984 27.4247L8.16929 25.5685C10.1274 26.6344 12.3213 27.193 14.5507 27.1931H14.5565C21.9163 27.1931 27.9073 21.2043 27.9105 13.8432C27.9119 10.2762 26.524 6.9221 24.0025 4.39862C21.4814 1.87537 18.1285 0.485026 14.556 0.483398C7.19536 0.483398 1.20477 6.47193 1.20174 13.8327" fill="#40954F"/>
<path id="Vector_2" d="M0.724522 13.8281C0.723763 16.2653 1.36049 18.6445 2.571 20.7417L0.608398 27.9074L7.94169 25.9847C9.96224 27.0863 12.2372 27.6672 14.5521 27.668H14.558C22.1819 27.668 28.3881 21.4637 28.3913 13.8392C28.3926 10.144 26.9549 6.66932 24.3433 4.05544C21.7314 1.44189 18.2585 0.00151938 14.558 0C6.93293 0 0.727561 6.20341 0.724522 13.8281ZM5.09176 20.3805L4.81795 19.9459C3.66691 18.1157 3.05938 16.0007 3.06024 13.829C3.06263 7.49152 8.22028 2.3355 14.5624 2.3355C17.6337 2.33681 20.5201 3.53408 22.6911 5.70636C24.8619 7.87885 26.0565 10.7668 26.0557 13.8383C26.0529 20.1757 20.8952 25.3324 14.558 25.3324H14.5535C12.4901 25.3313 10.4664 24.7772 8.70148 23.73L8.28148 23.4809L3.92976 24.6219L5.09176 20.3805Z" fill="url(#paint0_linear_146_1133)"/>
<path id="Vector_3" d="M11.1009 8.04716C10.842 7.47164 10.5695 7.46003 10.3232 7.44994C10.1216 7.44125 9.89106 7.44191 9.66077 7.44191C9.43026 7.44191 9.05573 7.52862 8.73916 7.87428C8.42226 8.22026 7.5293 9.05636 7.5293 10.7569C7.5293 12.4575 8.76792 14.1009 8.94058 14.3318C9.11347 14.5622 11.3318 18.1635 14.845 19.549C17.7648 20.7003 18.359 20.4713 18.9927 20.4136C19.6265 20.3561 21.0378 19.5777 21.3257 18.7706C21.6138 17.9636 21.6138 17.2719 21.5275 17.1273C21.4411 16.9833 21.2106 16.8968 20.8649 16.724C20.5191 16.5511 18.8198 15.7149 18.503 15.5996C18.1861 15.4843 17.9557 15.4268 17.7252 15.7729C17.4947 16.1184 16.8328 16.8968 16.631 17.1273C16.4295 17.3584 16.2277 17.3871 15.8822 17.2142C15.5363 17.0408 14.4232 16.6763 13.1025 15.4989C12.075 14.5827 11.3813 13.4513 11.1796 13.1052C10.978 12.7596 11.158 12.5723 11.3313 12.4001C11.4866 12.2452 11.6771 11.9965 11.8501 11.7947C12.0224 11.5929 12.0799 11.4488 12.1952 11.2183C12.3106 10.9876 12.2528 10.7857 12.1666 10.6129C12.0799 10.44 11.4083 8.73056 11.1009 8.04716Z" fill="white"/>
</g>
<defs>
<linearGradient id="paint0_linear_146_1133" x1="1389.76" y1="2790.74" x2="1389.76" y2="0" gradientUnits="userSpaceOnUse">
<stop stop-color="#F9F9F9"/>
<stop offset="1" stop-color="white"/>
</linearGradient>
<clipPath id="clip0_146_1133">
<rect width="27.7829" height="28" fill="white" transform="translate(0.608398)"/>
</clipPath>
</defs>
</svg>
